grf
version=1
nRows=11
nColumns=46
inDegrees=yes
endheader
time	ground_force_1_vx	ground_force_1_vy	ground_force_1_vz	ground_force_1_px	ground_force_1_py	ground_force_1_pz	ground_moment_1_mx	ground_moment_1_my	ground_moment_1_mz	ground_force_2_vx	ground_force_2_vy	ground_force_2_vz	ground_force_2_px	ground_force_2_py	ground_force_2_pz	ground_moment_2_mx	ground_moment_2_my	ground_moment_2_mz	ground_force_3_vx	ground_force_3_vy	ground_force_3_vz	ground_force_3_px	ground_force_3_py	ground_force_3_pz	ground_moment_3_mx	ground_moment_3_my	ground_moment_3_mz	ground_force_4_vx	ground_force_4_vy	ground_force_4_vz	ground_force_4_px	ground_force_4_py	ground_force_4_pz	ground_moment_4_mx	ground_moment_4_my	ground_moment_4_mz	ground_force_5_vx	ground_force_5_vy	ground_force_5_vz	ground_force_5_px	ground_force_5_py	ground_force_5_pz	ground_moment_5_mx	ground_moment_5_my	ground_moment_5_mz
3.100000	0.000000	0.000000	0.000000	0.000000	0.000000	0.000000	0.000000	0.000000	0.000000	0.000000	0.000000	0.000000	0.000000	0.000000	0.000000	0.000000	0.000000	0.000000	0.000000	0.000000	0.000000	0.000000	0.000000	0.000000	0.000000	0.000000	0.000000	5.333337	547.826658	-30.821300	0.203144	0.000000	-1.076736	0.000000	1.907005	0.000000	-5.999747	544.147281	34.688431	0.222935	0.000000	-1.397146	-0.000000	-2.722243	-0.000000
3.100500	0.000000	0.000000	0.000000	0.000000	0.000000	0.000000	0.000000	0.000000	0.000000	0.000000	0.000000	0.000000	0.000000	0.000000	0.000000	0.000000	0.000000	0.000000	0.000000	0.000000	0.000000	0.000000	0.000000	0.000000	0.000000	0.000000	0.000000	5.352571	547.905691	-30.830724	0.203162	0.000000	-1.076726	0.000000	1.907178	0.000000	-5.998179	543.817986	34.670326	0.223000	0.000000	-1.397172	-0.000000	-2.719967	-0.000000
3.101000	0.000000	0.000000	0.000000	0.000000	0.000000	0.000000	0.000000	0.000000	0.000000	0.000000	0.000000	0.000000	0.000000	0.000000	0.000000	0.000000	0.000000	0.000000	0.000000	0.000000	0.000000	0.000000	0.000000	0.000000	0.000000	0.000000	0.000000	5.372946	547.984160	-30.839785	0.203180	0.000000	-1.076717	0.000000	1.907255	0.000000	-5.994710	543.478732	34.652185	0.223065	0.000000	-1.397198	-0.000000	-2.717681	-0.000000
3.101500	0.000000	0.000000	0.000000	0.000000	0.000000	0.000000	0.000000	0.000000	0.000000	0.000000	0.000000	0.000000	0.000000	0.000000	0.000000	0.000000	0.000000	0.000000	0.000000	0.000000	0.000000	0.000000	0.000000	0.000000	0.000000	0.000000	0.000000	5.394461	548.061951	-30.848492	0.203198	0.000000	-1.076708	0.000000	1.907235	0.000000	-5.989381	543.129740	34.634039	0.223131	0.000000	-1.397224	-0.000000	-2.715381	-0.000000
3.102000	0.000000	0.000000	0.000000	0.000000	0.000000	0.000000	0.000000	0.000000	0.000000	0.000000	0.000000	0.000000	0.000000	0.000000	0.000000	0.000000	0.000000	0.000000	0.000000	0.000000	0.000000	0.000000	0.000000	0.000000	0.000000	0.000000	0.000000	5.417114	548.138932	-30.856852	0.203216	0.000000	-1.076698	0.000000	1.907116	0.000000	-5.982238	542.771290	34.615918	0.223197	0.000000	-1.397251	-0.000000	-2.713064	-0.000000
3.102500	0.000000	0.000000	0.000000	0.000000	0.000000	0.000000	0.000000	0.000000	0.000000	0.000000	0.000000	0.000000	0.000000	0.000000	0.000000	0.000000	0.000000	0.000000	0.000000	0.000000	0.000000	0.000000	0.000000	0.000000	0.000000	0.000000	0.000000	5.440898	548.214952	-30.864867	0.203233	0.000000	-1.076690	0.000000	1.906895	0.000000	-5.973333	542.403709	34.597850	0.223263	0.000000	-1.397277	-0.000000	-2.710724	-0.000000
3.103000	0.000000	0.000000	0.000000	0.000000	0.000000	0.000000	0.000000	0.000000	0.000000	0.000000	0.000000	0.000000	0.000000	0.000000	0.000000	0.000000	0.000000	0.000000	0.000000	0.000000	0.000000	0.000000	0.000000	0.000000	0.000000	0.000000	0.000000	5.465808	548.289844	-30.872540	0.203251	0.000000	-1.076681	0.000000	1.906571	0.000000	-5.962717	542.027359	34.579861	0.223330	0.000000	-1.397304	-0.000000	-2.708359	-0.000000
3.103500	0.000000	0.000000	0.000000	0.000000	0.000000	0.000000	0.000000	0.000000	0.000000	0.000000	0.000000	0.000000	0.000000	0.000000	0.000000	0.000000	0.000000	0.000000	0.000000	0.000000	0.000000	0.000000	0.000000	0.000000	0.000000	0.000000	0.000000	5.491836	548.363430	-30.879875	0.203268	0.000000	-1.076672	0.000000	1.906144	0.000000	-5.950450	541.642617	34.561975	0.223396	0.000000	-1.397330	-0.000000	-2.705962	-0.000000
3.104000	0.000000	0.000000	0.000000	0.000000	0.000000	0.000000	0.000000	0.000000	0.000000	0.000000	0.000000	0.000000	0.000000	0.000000	0.000000	0.000000	0.000000	0.000000	0.000000	0.000000	0.000000	0.000000	0.000000	0.000000	0.000000	0.000000	0.000000	5.518976	548.435528	-30.886882	0.203285	0.000000	-1.076664	0.000000	1.905613	0.000000	-5.936593	541.249872	34.544213	0.223463	0.000000	-1.397357	-0.000000	-2.703531	-0.000000
3.104500	0.000000	0.000000	0.000000	0.000000	0.000000	0.000000	0.000000	0.000000	0.000000	0.000000	0.000000	0.000000	0.000000	0.000000	0.000000	0.000000	0.000000	0.000000	0.000000	0.000000	0.000000	0.000000	0.000000	0.000000	0.000000	0.000000	0.000000	5.547217	548.505962	-30.893581	0.203303	0.000000	-1.076655	0.000000	1.904980	0.000000	-5.921214	540.849529	34.526591	0.223530	0.000000	-1.397384	-0.000000	-2.701063	-0.000000
3.105000	0.000000	0.000000	0.000000	0.000000	0.000000	0.000000	0.000000	0.000000	0.000000	0.000000	0.000000	0.000000	0.000000	0.000000	0.000000	0.000000	0.000000	0.000000	0.000000	0.000000	0.000000	0.000000	0.000000	0.000000	0.000000	0.000000	0.000000	5.576552	548.574567	-30.900000	0.203320	0.000000	-1.076647	0.000000	1.904247	0.000000	-5.904385	540.442019	34.509125	0.223597	0.000000	-1.397411	-0.000000	-2.698554	-0.000000
